normalP032_grf.mot
version=1
nRows=10
nColumns=19
inDegrees=yes
endheader
time	1_ground_force_vx	1_ground_force_vy	1_ground_force_vz	1_ground_force_px	1_ground_force_py	1_ground_force_pz	1_ground_torque_x	1_ground_torque_y	1_ground_torque_z	2_ground_force_vx	2_ground_force_vy	2_ground_force_vz	2_ground_force_px	2_ground_force_py	2_ground_force_pz	2_ground_torque_x	2_ground_torque_y	2_ground_torque_z
            1.500000	         -123.779174	          686.322213	           11.613438	            0.194439	            0.003712	           -0.331848	           -0.151085	            0.837727	            0.014175	            0.008210	            0.358424	            0.023761	            0.905856	            0.001738	           -0.251009	           -0.081643	           -0.014825	            0.110764
            1.501000	         -124.133478	          688.789847	           12.812771	            0.194425	            0.003714	           -0.332093	           -0.138791	            0.770123	            0.014326	            0.008348	            0.439820	            0.016369	            0.905856	            0.001738	           -0.251009	            0.035982	           -0.030875	            0.006703
            1.502000	         -124.399900	          693.170921	           13.952368	            0.194940	            0.003713	           -0.332165	           -0.132149	            0.736352	            0.014822	           -0.014577	            0.519901	           -0.013971	            0.905856	            0.001738	           -0.251009	            0.019079	           -0.016276	           -0.013717
            1.503000	         -124.629654	          696.675091	           15.156679	            0.195168	            0.003712	           -0.332174	           -0.127034	            0.710114	            0.015449	           -0.030569	            0.040723	           -0.016695	            0.905856	            0.001738	           -0.251009	            0.019137	           -0.027823	           -0.097115
            1.504000	         -124.989220	          700.176307	           16.445482	            0.195691	            0.003713	           -0.332418	           -0.118394	            0.663230	            0.015578	            0.007806	            0.118679	            0.022101	            0.905856	            0.001738	           -0.251009	           -0.064903	           -0.020400	            0.131494
            1.505000	         -125.181249	          703.441490	           17.518409	            0.195850	            0.003713	           -0.332570	           -0.111117	            0.624408	            0.015550	            0.062251	            0.678598	            0.048204	            0.905856	            0.001738	           -0.251009	           -0.047960	           -0.022688	            0.027585
            1.506000	         -125.387953	          707.024294	           18.661877	            0.196229	            0.003713	           -0.332781	           -0.105439	            0.594536	            0.015693	           -0.006604	            0.760377	            0.002526	            0.905856	            0.001738	           -0.251009	            0.103312	           -0.023428	           -0.034952
            1.507000	         -125.457185	          710.528127	           19.728300	            0.196563	            0.003713	           -0.332797	           -0.107328	            0.607855	            0.016878	           -0.006709	            0.679359	            0.009755	            0.905856	            0.001738	           -0.251009	           -0.014294	           -0.028590	           -0.014134
            1.508000	         -125.589013	          713.314588	           20.691749	            0.196820	            0.003713	           -0.333052	           -0.103332	            0.586900	            0.017025	            0.039058	            0.518725	            0.024303	            0.905856	            0.001738	           -0.251009	           -0.115075	           -0.025003	           -0.055618
            1.509000	         -125.561504	          715.383405	           21.513822	            0.196886	            0.003715	           -0.333322	           -0.100772	            0.574148	            0.017266	            0.023304	            0.199275	            0.007327	            0.905856	            0.001738	           -0.251009	           -0.048089	           -0.020775	            0.027671
